<?xml version="1.0" standalone="no"?>
<!DOCTYPE svg PUBLIC "-//W3C//DTD SVG 20010904//EN"
 "http://www.w3.org/TR/2001/REC-SVG-20010904/DTD/svg10.dtd">
<svg version="1.0" xmlns="http://www.w3.org/2000/svg"
 width="4000.000000pt" height="4000.000000pt" viewBox="0 0 4000.000000 4000.000000"
 preserveAspectRatio="xMidYMid meet">

<g transform="translate(0.000000,4000.000000) scale(0.100000,-0.100000)"
fill="#000000" stroke="none">
<path d="M17755 34374 c-101 -16 -217 -66 -295 -127 -25 -20 -72 -71 -105
-113 -95 -122 -98 -123 -378 -123 -336 1 -601 -35 -877 -117 -77 -23 -160 -40
-250 -49 -550 -59 -811 -95 -1110 -151 -366 -69 -677 -158 -861 -247 -255
-123 -439 -295 -510 -475 -19 -47 -23 -77 -23 -173 l-1 -117 -100 -28 c-434
-120 -882 -309 -1203 -508 -435 -270 -742 -643 -742 -901 0 -132 64 -248 177
-326 l42 -30 -96 -117 c-482 -585 -796 -1144 -897 -1594 -136 -608 -22 -994
319 -1083 33 -8 79 -15 103 -15 37 0 43 -3 38 -17 -3 -10 -14 -70 -26 -133
-126 -715 -80 -1357 129 -1795 211 -443 497 -675 771 -625 35 6 81 20 102 31
20 10 42 19 47 19 6 0 45 -46 88 -102 626 -831 1227 -1369 1678 -1504 72 -21
112 -27 200 -28 61 0 128 1 150 4 35 4 40 2 37 -14 -7 -41 22 -165 55 -235 25
-53 56 -96 104 -145 38 -39 69 -71 69 -72 0 -1 -37 -28 -82 -60 -339 -236
-569 -470 -663 -676 -44 -96 -68 -211 -63 -302 8 -162 87 -264 277 -359 l107
-53 -129 -135 c-274 -284 -433 -506 -497 -693 -19 -57 -10 -50 -154 -111 -210
-87 -403 -221 -586 -405 -142 -142 -234 -264 -300 -395 -50 -102 -134 -339
-146 -414 l-6 -40 -552 -3 c-593 -4 -582 -3 -726 -60 -202 -80 -379 -256 -467
-463 -15 -36 -1157 -4528 -1217 -4788 -17 -71 43 -165 119 -186 25 -7 158 -11
357 -11 l316 0 -4 -37 c-9 -83 -24 -998 -24 -1468 0 -1879 130 -3831 376
-5655 172 -1277 169 -1262 249 -1307 l40 -23 6689 0 6689 0 66 29 c36 16 82
32 101 35 32 6 213 102 1595 848 281 151 850 459 1265 683 1241 670 1378 744
1545 835 88 47 272 147 409 221 205 110 253 140 273 170 20 31 28 67 48 230
92 748 176 1592 230 2314 14 187 27 369 30 405 3 36 14 216 25 400 65 1102 94
2189 88 3303 l-3 688 530 213 c579 233 592 240 615 325 10 39 9 53 -15 130
-119 385 -1454 4399 -1478 4444 -36 68 -117 146 -187 179 -31 14 -49 30 -50
41 0 16 -32 17 -525 17 -289 0 -525 2 -525 5 0 3 11 27 24 53 78 156 106 369
71 537 -31 149 -140 315 -268 408 l-66 48 19 45 c62 145 130 406 150 579 61
535 -171 1045 -565 1243 -125 62 -194 77 -365 77 -131 0 -167 -4 -233 -23
-302 -87 -598 -366 -871 -820 -33 -54 -42 -63 -60 -57 -282 83 -495 87 -647 9
-230 -116 -420 -567 -484 -1146 l-6 -58 -52 0 c-67 0 -166 -16 -244 -39 l-62
-19 -65 88 c-120 160 -258 313 -497 552 l-237 237 68 51 c159 118 224 247 223
445 -1 99 -27 227 -68 329 -14 34 -25 65 -25 68 0 3 30 15 68 28 412 138 970
638 1558 1395 60 77 118 153 130 169 l21 29 69 -28 c56 -23 85 -29 154 -29
155 0 270 54 411 195 202 202 362 519 432 855 46 220 52 291 52 629 -1 336
-13 478 -65 759 -11 61 -20 116 -20 123 0 9 14 13 43 13 160 1 321 107 397
264 53 109 70 202 70 382 0 334 -81 650 -255 1002 -171 343 -388 671 -686
1034 -55 67 -99 124 -99 127 1 3 23 22 50 41 169 120 208 336 100 550 -49 96
-152 231 -255 335 -325 326 -866 612 -1537 813 l-188 56 0 103 c0 120 -19 191
-78 288 -74 123 -249 269 -427 358 -360 178 -1006 313 -1925 402 -144 13 -275
31 -300 40 -132 47 -425 106 -612 125 -125 12 -374 15 -515 5 -88 -7 -104 -5
-149 14 -30 13 -73 46 -109 82 -112 114 -261 203 -404 241 -116 31 -304 29
-433 -5 -121 -32 -236 -81 -358 -154 -82 -49 -103 -58 -156 -61 -58 -4 -68 -1
-185 56 -204 99 -333 147 -479 178 -75 15 -278 26 -335 18z m255 -348 c110
-23 217 -63 390 -146 196 -93 240 -104 369 -98 118 6 180 27 309 105 168 100
337 151 458 139 129 -13 228 -63 329 -166 76 -78 157 -134 243 -167 74 -28 89
-29 467 -23 321 6 623 -47 946 -166 182 -67 402 -187 486 -267 l32 -30 -6 -92
c-10 -162 38 -310 138 -419 27 -30 107 -96 177 -147 352 -257 605 -476 735
-639 112 -140 124 -202 57 -305 -70 -107 -93 -175 -98 -289 -5 -120 7 -186 56
-286 30 -63 52 -91 141 -175 197 -186 406 -400 471 -483 134 -170 208 -316
217 -429 7 -84 1 -101 -62 -180 -64 -78 -118 -184 -135 -264 -18 -82 -8 -240
19 -310 12 -31 56 -114 99 -185 258 -426 432 -792 508 -1068 30 -107 43 -297
25 -362 -21 -78 -48 -105 -163 -162 -164 -80 -259 -187 -314 -352 -23 -70 -24
-175 -4 -465 21 -307 19 -886 -3 -1060 -24 -192 -58 -305 -95 -320 -76 -32
-180 -22 -347 32 -67 22 -138 38 -183 41 l-72 5 -16 56 c-24 83 -70 195 -119
293 l-44 87 55 32 c164 93 242 252 215 437 -31 217 -139 440 -306 632 -163
188 -426 361 -679 445 -181 61 -388 84 -428 48 -21 -19 -23 -52 -5 -75 21 -27
145 -121 367 -278 118 -84 249 -180 290 -214 120 -97 264 -245 315 -324 50
-79 99 -199 110 -273 14 -92 -54 -131 -303 -174 -81 -15 -155 -29 -165 -33
-15 -6 -3 -28 83 -147 251 -350 371 -715 319 -967 -25 -123 -116 -260 -216
-329 -159 -110 -469 -206 -765 -238 -302 -33 -671 6 -1133 119 -749 184 -1395
502 -1674 825 -100 116 -157 230 -168 340 l-5 51 153 92 c592 356 941 753
1010 1149 18 103 8 237 -22 303 -105 225 -398 378 -876 456 -130 21 -561 30
-716 15 -519 -51 -891 -219 -1008 -457 -29 -59 -34 -79 -37 -164 -18 -444 364
-922 1065 -1331 l102 -60 -5 -37 c-39 -295 -302 -557 -813 -812 -683 -340
-1613 -550 -2169 -489 -316 34 -642 141 -793 261 -64 51 -136 154 -167 241
-23 64 -26 86 -25 202 0 154 24 260 97 432 58 136 119 239 240 403 53 72 96
132 96 134 0 2 -75 18 -167 36 -162 31 -257 63 -295 97 -37 34 -10 162 65 307
114 221 321 410 810 740 178 121 187 129 187 160 0 17 -5 37 -12 44 -18 18
-87 15 -201 -9 -426 -86 -835 -346 -1054 -670 -123 -180 -198 -434 -174 -582
21 -129 102 -243 218 -309 29 -16 53 -33 53 -38 0 -4 -22 -54 -49 -111 -28
-57 -66 -151 -85 -209 l-35 -105 -68 -6 c-38 -4 -118 -22 -178 -42 -168 -54
-271 -64 -347 -32 -49 20 -89 199 -108 480 -17 261 -11 554 21 1070 11 171 10
197 -5 255 -51 195 -174 336 -357 409 -61 24 -86 46 -115 101 -16 30 -19 56
-18 175 1 130 3 148 36 260 85 284 232 592 481 1005 58 98 109 195 124 240 23
67 25 87 21 190 -4 101 -8 124 -36 190 -18 41 -50 98 -71 125 -88 113 -95 124
-99 184 -9 126 69 287 242 501 61 76 256 274 447 455 89 84 111 112 141 175
49 101 61 166 56 286 -6 115 -26 177 -93 280 -35 55 -45 78 -45 113 -1 158
278 434 894 886 94 69 117 91 167 168 65 100 84 172 84 319 0 150 -3 145 143
239 364 236 921 374 1427 353 170 -8 232 3 345 58 64 31 136 96 240 217 35 41
58 57 100 71 66 23 169 25 260 6z m-2803 -633 c-51 -82 -58 -117 -55 -257 4
-156 -7 -188 -86 -247 -28 -21 -123 -92 -211 -158 -474 -352 -756 -649 -827
-871 -14 -46 -20 -91 -20 -155 0 -110 21 -176 89 -277 37 -57 47 -82 51 -125
9 -102 -11 -130 -218 -318 -177 -160 -369 -377 -476 -537 -244 -367 -263 -676
-54 -904 50 -55 74 -119 68 -188 -4 -46 -17 -75 -100 -212 -251 -418 -412
-753 -502 -1044 -91 -296 -95 -534 -10 -719 54 -120 133 -193 288 -271 70 -35
97 -54 119 -86 43 -62 47 -96 31 -297 -33 -418 -29 -1055 7 -1302 54 -363 183
-532 435 -568 115 -17 326 14 465 68 13 5 20 -15 42 -112 81 -354 62 -472 -85
-523 -136 -47 -259 -34 -422 44 -360 174 -923 729 -1431 1413 -53 71 -106 132
-130 147 -83 55 -179 58 -263 10 -131 -75 -113 -70 -168 -49 -124 47 -305 292
-394 535 -148 400 -158 990 -28 1610 43 205 30 282 -58 360 -63 55 -96 64
-222 62 -139 -3 -160 6 -198 85 -25 49 -29 71 -32 173 -7 179 28 400 94 598
41 121 164 383 250 529 138 237 356 540 568 791 169 201 180 219 184 307 7
126 -41 197 -178 264 -41 20 -79 43 -84 53 -36 61 145 310 343 470 315 255
830 493 1406 650 177 48 211 64 257 118 58 66 75 170 43 260 -34 96 -9 165 94
262 153 143 385 241 791 333 176 40 490 96 643 114 4 1 -3 -16 -16 -36z m7408
-8 c682 -113 1091 -271 1225 -474 48 -71 53 -105 30 -187 -24 -83 -25 -127 -5
-185 37 -104 93 -142 285 -193 549 -143 1076 -382 1395 -631 221 -173 409
-426 368 -494 -5 -9 -42 -33 -83 -53 -40 -21 -84 -48 -97 -60 -66 -61 -97
-169 -74 -255 14 -50 44 -92 185 -259 336 -399 621 -840 762 -1180 170 -412
201 -889 62 -974 -29 -17 -48 -20 -148 -18 -112 2 -117 1 -170 -28 -69 -39
-115 -98 -131 -168 -11 -50 -9 -69 24 -233 67 -329 81 -469 82 -813 0 -331 -9
-426 -61 -626 -83 -319 -289 -643 -447 -703 -45 -17 -61 -13 -122 28 -70 47
-136 65 -204 56 -83 -11 -128 -49 -247 -207 -206 -273 -405 -514 -579 -698
-443 -471 -805 -735 -1046 -765 -71 -9 -192 10 -250 39 -109 55 -122 195 -48
520 18 79 25 96 38 91 64 -25 222 -56 305 -62 84 -5 115 -2 185 16 104 26 154
55 218 125 87 94 134 228 169 481 16 112 19 193 18 590 -1 310 -6 523 -16 654
-9 112 -12 209 -7 229 15 68 57 114 145 157 200 98 291 202 340 390 25 99 24
297 -4 425 -69 323 -253 731 -550 1224 -83 137 -96 166 -100 212 -6 72 16 129
79 202 65 75 105 158 126 257 61 302 -179 723 -666 1168 -79 73 -153 141 -164
152 -50 52 -72 159 -44 221 7 16 29 54 50 84 56 84 80 160 80 260 1 172 -66
308 -254 517 -162 178 -360 344 -797 666 -38 28 -61 54 -78 91 -23 48 -24 58
-18 168 7 128 -1 168 -54 252 l-24 39 58 -8 c32 -4 148 -22 259 -40z m-3448
-6049 c51 -9 117 -25 148 -37 45 -17 55 -25 55 -44 0 -64 -176 -151 -445 -219
-165 -42 -254 -33 -505 50 -177 58 -294 134 -277 179 13 31 135 66 302 85 128
14 614 5 722 -14z m3807 -3082 c12 -45 70 -127 127 -178 57 -52 162 -106 242
-127 47 -11 49 -14 86 -88 98 -195 122 -353 67 -433 -11 -17 -79 -70 -151
-117 -145 -98 -190 -146 -201 -216 -12 -82 19 -126 253 -356 387 -380 583
-596 702 -773 98 -144 150 -279 137 -350 -9 -48 -99 -128 -233 -209 -159 -96
-193 -137 -193 -234 0 -110 23 -129 345 -291 498 -250 781 -435 920 -602 35
-42 70 -99 63 -104 -2 -2 -262 -83 -578 -180 l-575 -176 -1074 0 -1073 0 -128
119 c-485 449 -787 660 -1150 804 -223 89 -463 150 -717 183 -158 21 -542 24
-688 5 -318 -41 -591 -123 -856 -257 -377 -191 -725 -506 -884 -801 l-28 -53
-884 0 -883 0 0 23 c0 41 -40 179 -77 267 -48 112 -96 191 -195 317 -380 485
-797 732 -1321 784 -64 6 -155 9 -202 8 -59 -3 -85 -1 -85 7 0 17 130 185 215
279 40 44 145 155 233 248 208 217 240 280 196 385 -32 77 -80 112 -255 182
-67 27 -141 61 -165 75 -39 23 -44 30 -44 61 0 53 35 142 87 218 88 128 252
277 503 455 251 178 301 227 315 310 9 52 -11 122 -47 165 -16 20 -74 67 -127
105 -105 75 -123 95 -140 158 -14 53 4 115 76 256 l55 107 41 -26 c179 -111
460 -208 723 -250 60 -9 114 -21 121 -26 7 -5 19 -33 29 -61 9 -29 36 -90 60
-137 109 -212 265 -331 433 -331 106 0 180 32 255 109 l39 41 91 -160 c135
-236 244 -387 371 -515 123 -124 190 -169 317 -210 99 -32 244 -42 330 -25 79
17 168 63 232 122 31 28 57 45 61 39 13 -21 234 -160 331 -209 129 -64 298
-122 444 -152 279 -58 584 -9 905 146 87 42 260 148 341 209 8 7 28 -5 65 -37
61 -53 150 -99 228 -117 115 -27 320 4 444 66 176 89 401 360 607 734 29 52
54 97 56 99 2 2 29 -20 61 -48 128 -115 295 -125 448 -26 110 70 224 231 285
403 17 46 28 63 44 66 12 3 85 16 164 30 304 56 559 155 732 285 29 22 57 38
61 36 4 -3 10 -17 13 -31z m-5451 -191 c82 -335 185 -623 309 -867 l64 -125
-40 33 c-76 61 -125 74 -202 51 -51 -15 -86 -44 -122 -105 -75 -126 -198 -152
-373 -78 -45 19 -155 122 -224 208 -114 144 -262 390 -375 625 -91 190 -89
172 -22 185 255 51 598 143 807 218 61 22 115 40 121 41 6 0 31 -82 57 -186z
m2704 128 c209 -69 423 -128 618 -171 77 -17 150 -33 163 -36 30 -6 28 -11
-68 -204 -187 -376 -382 -664 -519 -764 -127 -94 -295 -112 -379 -41 -16 13
-46 51 -67 84 -78 122 -204 142 -311 48 -26 -23 -45 -37 -43 -32 2 6 32 64 65
130 122 239 228 538 309 872 40 163 42 173 49 173 2 0 84 -27 183 -59z m6976
-230 c177 -69 327 -266 394 -516 36 -137 38 -365 4 -525 -44 -212 -113 -399
-225 -610 -31 -58 -56 -108 -56 -112 0 -4 53 -23 118 -44 146 -45 182 -64 248
-125 132 -125 148 -318 44 -518 -124 -238 -470 -546 -870 -775 -113 -64 -126
-69 -749 -261 -348 -108 -635 -194 -636 -193 -1 2 -14 26 -28 53 -64 127 -221
296 -395 425 -139 103 -389 252 -581 346 -88 44 -160 82 -160 85 -1 3 28 29
64 59 74 60 148 156 176 230 36 96 35 186 -8 367 -4 19 1 22 54 33 80 17 218
7 333 -24 52 -14 102 -26 111 -26 14 0 17 26 22 208 8 285 44 511 118 735 65
197 145 338 205 363 101 42 352 -10 566 -117 43 -22 82 -39 87 -39 6 0 41 62
79 138 124 250 260 448 422 616 134 138 236 209 353 241 78 22 236 15 310 -14z
m-5677 -40 c34 -1 75 -4 92 -7 l31 -6 -25 -50 c-31 -62 -95 -132 -134 -148
-25 -10 -34 -10 -54 4 -26 17 -92 141 -102 192 l-6 30 69 -7 c37 -5 96 -8 129
-8z m-5357 -48 c-22 -65 -58 -130 -87 -156 -28 -26 -67 -13 -118 39 -43 43
-101 141 -89 152 5 5 148 16 267 20 l47 2 -20 -57z m3296 -320 c-43 -109 -138
-294 -199 -388 -72 -110 -191 -230 -277 -278 -271 -152 -558 -28 -777 335 -72
119 -190 374 -178 385 2 3 16 -14 30 -36 72 -113 194 -239 303 -311 136 -90
265 -125 428 -117 194 9 341 81 505 247 52 53 115 128 140 167 25 38 46 69 48
67 2 -1 -9 -33 -23 -71z m9521 -2592 c23 -14 36 -33 47 -68 31 -95 961 -2912
1268 -3838 71 -214 125 -392 121 -396 -4 -3 -243 -101 -532 -217 -289 -116
-613 -247 -720 -290 -192 -78 -613 -248 -1725 -695 -308 -124 -822 -331 -1141
-460 l-581 -234 -138 441 c-75 243 -271 871 -435 1396 -164 525 -436 1399
-606 1942 -169 544 -306 990 -303 992 2 2 292 93 644 202 352 109 1401 433
2330 720 930 287 1701 523 1715 523 14 1 39 -8 56 -18z m-14851 -110 c319 -65
568 -211 807 -472 176 -192 276 -347 318 -494 48 -165 45 -316 -11 -545 -121
-505 -385 -946 -681 -1137 -489 -316 -1317 -348 -1748 -67 -87 57 -130 103
-185 199 -198 347 -263 896 -164 1389 61 303 158 491 361 695 254 257 540 406
863 450 107 15 325 6 440 -18z m5620 -261 c399 -45 778 -172 1054 -354 55 -37
101 -69 101 -71 0 -1 -17 -1 -37 1 -52 6 -80 -11 -123 -76 -68 -102 -112 -236
-150 -455 -11 -66 -29 -160 -40 -210 -11 -49 -31 -146 -45 -215 -99 -476 -361
-941 -656 -1160 -204 -152 -520 -263 -854 -300 -132 -15 -388 -12 -518 5 -323
42 -577 154 -697 307 -88 110 -186 354 -227 563 -25 128 -25 491 0 625 58 310
156 513 340 706 180 188 344 309 572 419 241 117 459 178 780 218 67 9 416 6
500 -3z m1325 -557 c69 -56 150 -124 180 -152 l55 -50 -145 -1 c-97 0 -165 -5
-204 -15 -33 -9 -61 -13 -64 -10 -10 10 19 136 46 202 l26 65 -22 40 c-12 22
-16 36 -9 31 7 -5 68 -55 137 -110z m-8994 -740 c-5 -301 29 -553 109 -804 44
-135 124 -308 190 -410 26 -41 65 -107 85 -146 89 -172 223 -296 428 -397 223
-111 483 -172 791 -184 646 -28 1242 154 1605 488 90 83 273 309 342 423 16
27 38 63 48 80 41 69 146 287 184 382 66 166 123 354 166 548 l6 27 -221 0
-221 0 7 38 c3 20 11 58 16 83 l10 46 322 6 c177 4 544 7 816 7 l493 0 -6 -22
c-54 -200 -77 -507 -55 -728 20 -195 80 -432 148 -583 130 -287 168 -363 224
-448 179 -273 532 -447 1023 -504 167 -19 490 -19 659 0 579 67 1031 273 1315
600 47 53 90 102 95 109 22 23 133 184 177 256 190 311 335 714 393 1098 l7
43 -176 -3 c-164 -3 -176 -2 -176 15 0 43 53 117 105 145 27 15 154 17 1418
20 773 2 1387 0 1387 -5 0 -5 -23 -101 -50 -213 -28 -113 -77 -320 -111 -460
-72 -303 -416 -1742 -750 -3133 -131 -550 -242 -1003 -245 -1008 -3 -5 -2663
-9 -6535 -9 -5845 0 -6529 2 -6529 15 0 9 51 217 114 463 63 246 198 780 301
1187 103 407 265 1048 360 1425 96 377 215 849 265 1050 101 402 118 445 206
534 75 77 189 136 289 149 17 2 242 5 502 6 l472 1 -3 -187z m11878 -1043 c9
-146 19 -290 21 -320 2 -30 7 -100 10 -155 3 -55 9 -176 15 -270 10 -181 16
-308 25 -525 3 -74 8 -169 10 -210 2 -41 7 -172 10 -290 3 -118 7 -240 10
-270 2 -30 7 -201 11 -380 3 -179 7 -338 9 -355 8 -69 20 -1273 20 -1930 0
-658 -12 -1848 -20 -2045 -2 -47 -6 -236 -9 -420 -4 -184 -8 -375 -11 -425 -3
-49 -7 -211 -10 -360 -7 -355 -2 -324 -86 -468 -19 -33 -45 -78 -58 -100 -120
-212 -374 -558 -577 -788 -94 -107 -351 -365 -469 -471 -677 -608 -1587 -1063
-2490 -1247 -394 -80 -600 -101 -1110 -111 -574 -12 -1767 -12 -2090 0 -888
33 -1634 130 -2315 300 -848 212 -1535 525 -2115 964 -128 97 -129 98 -275
227 -347 308 -662 700 -898 1119 -21 36 -42 74 -48 85 -32 57 -124 247 -181
375 -202 449 -347 924 -468 1525 -77 385 -89 509 -65 665 23 141 91 306 176
426 58 82 206 220 291 270 85 51 223 107 323 131 72 17 330 18 5645 23 l5570
5 59 22 c124 47 233 131 302 233 30 44 76 149 88 200 5 21 52 366 130 950 9
63 36 266 61 450 25 184 54 400 65 480 10 80 42 312 69 515 123 901 176 1295
206 1525 95 729 133 969 146 935 4 -11 14 -139 23 -285z m806 -2145 c14 -7 38
-27 54 -44 30 -32 45 -83 296 -1056 38 -148 95 -364 125 -480 30 -115 78 -300
106 -410 101 -394 149 -566 173 -613 51 -101 150 -183 267 -223 53 -17 79 -20
154 -16 89 4 94 6 530 182 242 97 611 246 820 330 209 84 522 210 695 280 173
70 488 197 700 282 212 85 439 177 505 203 87 36 122 46 128 37 4 -7 5 -70 2
-142 -2 -71 -7 -283 -10 -470 -3 -187 -8 -394 -10 -460 -2 -66 -7 -201 -10
-300 -3 -99 -8 -223 -10 -275 -3 -52 -12 -241 -20 -420 -8 -179 -17 -350 -20
-380 -2 -30 -7 -107 -10 -170 -6 -102 -34 -507 -51 -740 -14 -187 -236 -716
-443 -1057 -149 -245 -280 -414 -462 -593 -294 -292 -639 -474 -1024 -541
-307 -54 -699 -17 -1035 98 -93 32 -281 125 -375 185 -238 153 -501 417 -684
687 -291 430 -495 987 -561 1531 -55 460 -113 2361 -122 3975 -3 529 -5 506
61 569 54 51 163 66 231 31z"/>
<path d="M16345 29419 c-198 -26 -386 -105 -541 -229 -138 -110 -268 -327
-319 -530 -46 -186 -44 -484 4 -550 38 -52 104 -34 122 33 156 592 424 862
875 884 138 7 231 -12 345 -69 93 -46 219 -163 288 -266 93 -138 177 -338 216
-516 23 -104 64 -133 119 -83 67 59 56 405 -21 635 -164 492 -579 755 -1088
691z"/>
<path d="M20958 29419 c-372 -54 -659 -308 -788 -697 -45 -138 -63 -271 -58
-435 5 -157 16 -195 61 -211 21 -8 32 -6 53 10 21 15 31 40 54 130 68 271 182
479 347 635 80 75 148 116 248 150 61 21 88 24 210 24 164 -1 257 -21 395 -88
72 -35 101 -57 185 -141 140 -142 224 -296 301 -559 20 -67 43 -130 52 -139
20 -24 67 -23 91 1 51 51 55 394 7 576 -95 363 -356 624 -714 716 -141 36
-315 47 -444 28z"/>
<path d="M19068 12390 c-342 -62 -596 -353 -602 -687 -1 -65 -4 -84 -16 -88
-158 -47 -2403 -695 -2408 -695 -4 0 -24 27 -46 60 -57 90 -169 189 -268 238
-118 60 -191 76 -328 76 -137 0 -208 -16 -330 -76 -68 -33 -102 -59 -176 -132
-77 -77 -98 -105 -138 -186 -61 -125 -79 -213 -73 -355 5 -129 35 -233 94
-334 38 -64 142 -180 196 -217 l28 -20 -27 -79 c-25 -73 -28 -93 -28 -220 0
-125 3 -148 27 -220 38 -113 90 -198 177 -286 278 -281 714 -291 1000 -22 152
143 230 317 230 515 0 37 2 68 5 68 5 0 903 259 1335 385 1124 327 1109 323
1110 283 0 -4 23 -35 50 -70 96 -120 218 -202 370 -249 96 -30 279 -33 380 -5
248 67 449 268 516 516 28 101 25 284 -5 380 -46 149 -144 295 -248 370 l-49
35 23 68 c158 454 -169 933 -652 952 -55 2 -121 0 -147 -5z m318 -294 c168
-83 264 -236 264 -422 0 -89 -21 -161 -71 -245 -67 -113 -51 -179 57 -230 74
-35 173 -122 209 -184 93 -158 89 -350 -11 -502 -86 -128 -229 -204 -384 -205
-188 -1 -339 97 -427 278 -48 98 -76 124 -134 124 -18 0 -164 -38 -324 -84
-159 -47 -757 -220 -1328 -385 -571 -166 -1051 -308 -1067 -316 -16 -8 -37
-30 -46 -47 -15 -29 -15 -43 -4 -129 11 -83 11 -105 -3 -167 -21 -94 -58 -163
-120 -230 -92 -96 -200 -142 -337 -142 -225 0 -410 151 -456 372 -26 121 -3
232 72 357 60 99 38 160 -81 220 -181 91 -287 290 -258 482 21 133 112 273
221 336 142 83 334 86 471 6 94 -55 174 -150 207 -246 21 -63 63 -97 119 -97
55 0 2699 764 2737 791 40 29 53 79 38 150 -49 230 82 457 308 536 56 20 83
23 168 21 94 -3 106 -6 180 -42z"/>
</g>
</svg>
